<?xml version="1.0" encoding="UTF-8" standalone="no"?>
<!DOCTYPE svg PUBLIC "-//W3C//DTD SVG 1.1//EN"
 "http://www.w3.org/Graphics/SVG/1.1/DTD/svg11.dtd">
<!-- Generated by graphviz version 2.42.4 (0)
 -->
<!-- Title: MediaAnalyzer Pages: 1 -->
<svg width="864pt" height="1151pt"
 viewBox="0.00 0.00 864.00 1150.65" xmlns="http://www.w3.org/2000/svg" xmlns:xlink="http://www.w3.org/1999/xlink">
<g id="graph0" class="graph" transform="scale(0.5 0.5) rotate(0) translate(4 2276)">
<title>MediaAnalyzer</title>
<polygon fill="white" stroke="transparent" points="-4,4 -4,-2276 1708,-2276 1708,4 -4,4"/>
<g id="clust1" class="cluster">
<title>cluster_legend</title>
<polygon fill="lightgray" stroke="lightgray" points="8,-1822.27 8,-2248.64 108,-2248.64 108,-1822.27 8,-1822.27"/>
<text text-anchor="middle" x="58" y="-2235.04" font-family="Arial" font-size="12.00">Legend</text>
</g>
<g id="clust2" class="cluster">
<title>cluster_sources</title>
<polygon fill="#e3f2fd" stroke="#e3f2fd" points="116,-2035.46 116,-2248.64 358,-2248.64 358,-2035.46 116,-2035.46"/>
<text text-anchor="middle" x="237" y="-2235.04" font-family="Arial" font-size="12.00">Video Sources</text>
</g>
<g id="clust3" class="cluster">
<title>cluster_adapters</title>
<polygon fill="#f3e5f5" stroke="#f3e5f5" points="366,-1822.27 366,-2248.64 648,-2248.64 648,-1822.27 366,-1822.27"/>
<text text-anchor="middle" x="507" y="-2235.04" font-family="Arial" font-size="12.00">Source Adapters Pattern</text>
</g>
<g id="clust4" class="cluster">
<title>cluster_core</title>
<polygon fill="#fff3e0" stroke="#fff3e0" points="463,-1213.39 463,-1766.79 653,-1766.79 653,-1213.39 463,-1213.39"/>
<text text-anchor="middle" x="558" y="-1753.19" font-family="Arial" font-size="12.00">Core Platform</text>
</g>
<g id="clust5" class="cluster">
<title>cluster_execution</title>
<polygon fill="#e8f5e8" stroke="#e8f5e8" points="1415,-604.5 1415,-1093.66 1696,-1093.66 1696,-604.5 1415,-604.5"/>
<text text-anchor="middle" x="1555.5" y="-1080.06" font-family="Arial" font-size="12.00">Execution Strategies Pattern</text>
</g>
<g id="clust6" class="cluster">
<title>cluster_event_sources</title>
<polygon fill="#e8f5e8" stroke="#e8f5e8" points="983,-880.47 983,-1426.57 1407,-1426.57 1407,-880.47 983,-880.47"/>
<text text-anchor="middle" x="1195" y="-1412.97" font-family="Arial" font-size="12.00">Event Source Pattern (Pluggable)</text>
</g>
<g id="clust7" class="cluster">
<title>cluster_events</title>
<polygon fill="#fff3e0" stroke="#fff3e0" points="949,-23.36 949,-817.69 1098,-817.69 1098,-23.36 949,-23.36"/>
<text text-anchor="middle" x="1023.5" y="-804.09" font-family="Arial" font-size="12.00">Event&#45;Driven Processing</text>
</g>
<g id="clust8" class="cluster">
<title>cluster_workers</title>
<polygon fill="#e3f2fd" stroke="#e3f2fd" points="230,-873.17 230,-1100.96 653,-1100.96 653,-873.17 230,-873.17"/>
<text text-anchor="middle" x="441.5" y="-1087.36" font-family="Arial" font-size="12.00">Celery Workers (Queue Segregation)</text>
</g>
<g id="clust9" class="cluster">
<title>cluster_ai_adapters</title>
<polygon fill="#fce4ec" stroke="#fce4ec" points="1106,-341.68 1106,-817.69 1407,-817.69 1407,-341.68 1106,-341.68"/>
<text text-anchor="middle" x="1256.5" y="-804.09" font-family="Arial" font-size="12.00">Analysis Adapters Pattern</text>
</g>
<g id="clust10" class="cluster">
<title>cluster_storage</title>
<polygon fill="#f1f8e9" stroke="#f1f8e9" points="787,-1213.39 787,-1426.57 975,-1426.57 975,-1213.39 787,-1213.39"/>
<text text-anchor="middle" x="881" y="-1412.97" font-family="Arial" font-size="12.00">Media Storage</text>
</g>
<g id="clust11" class="cluster">
<title>cluster_frontend</title>
<polygon fill="#e8eaf6" stroke="#e8eaf6" points="661,-880.47 661,-1433.87 779,-1433.87 779,-880.47 661,-880.47"/>
<text text-anchor="middle" x="720" y="-1420.27" font-family="Arial" font-size="12.00">Frontend</text>
</g>
<g id="clust12" class="cluster">
<title>cluster_cloud</title>
<polygon fill="#e0f2f1" stroke="#e0f2f1" points="1299,-23.36 1299,-236.54 1526,-236.54 1526,-23.36 1299,-23.36"/>
<text text-anchor="middle" x="1412.5" y="-222.94" font-family="Arial" font-size="12.00">GCP Services</text>
</g>
<!-- implemented -->
<g id="node1" class="node">
<title>implemented</title>
<polygon fill="#d4edda" stroke="transparent" points="100,-2129.36 16,-2129.36 16,-2093.36 100,-2093.36 100,-2129.36"/>
<text text-anchor="middle" x="58" y="-2108.86" font-family="Arial" font-size="10.00">✓ Implemented</text>
</g>
<!-- planned -->
<g id="node2" class="node">
<title>planned</title>
<polygon fill="#fff3cd" stroke="transparent" points="88.5,-1916.36 27.5,-1916.36 27.5,-1880.36 88.5,-1880.36 88.5,-1916.36"/>
<text text-anchor="middle" x="58" y="-1895.86" font-family="Arial" font-size="10.00">○ Planned</text>
</g>
<!-- implemented&#45;&gt;planned -->
<!-- webcam -->
<g id="node3" class="node">
<title>webcam</title>
<polygon fill="#d4edda" stroke="black" points="265.5,-2129.36 210.5,-2129.36 210.5,-2093.36 265.5,-2093.36 265.5,-2129.36"/>
<text text-anchor="middle" x="238" y="-2108.86" font-family="Arial" font-size="10.00">Webcam</text>
</g>
<!-- webcam_adapter -->
<g id="node7" class="node">
<title>webcam_adapter</title>
<polygon fill="#d4edda" stroke="black" points="555.5,-1916.36 466.5,-1916.36 466.5,-1880.36 555.5,-1880.36 555.5,-1916.36"/>
<text text-anchor="middle" x="511" y="-1895.86" font-family="Arial" font-size="10.00">WebcamAdapter</text>
</g>
<!-- webcam&#45;&gt;webcam_adapter -->
<g id="edge2" class="edge">
<title>webcam&#45;&gt;webcam_adapter</title>
<path fill="none" stroke="#2e7d32" d="M257.41,-2093.28C282,-2071.84 325.89,-2034.19 365,-2003.86 402.67,-1974.66 447.42,-1943.06 477.36,-1922.35"/>
<polygon fill="#2e7d32" stroke="#2e7d32" points="479.53,-1925.1 485.78,-1916.54 475.56,-1919.34 479.53,-1925.1"/>
</g>
<!-- rtmp -->
<g id="node4" class="node">
<title>rtmp</title>
<polygon fill="#d4edda" stroke="black" points="192,-2129.36 124,-2129.36 124,-2093.36 192,-2093.36 192,-2129.36"/>
<text text-anchor="middle" x="158" y="-2108.86" font-family="Arial" font-size="10.00">RTMP/OBS</text>
</g>
<!-- rtmp_adapter -->
<g id="node8" class="node">
<title>rtmp_adapter</title>
<polygon fill="#d4edda" stroke="black" points="448,-1916.36 374,-1916.36 374,-1880.36 448,-1880.36 448,-1916.36"/>
<text text-anchor="middle" x="411" y="-1895.86" font-family="Arial" font-size="10.00">RtmpAdapter</text>
</g>
<!-- rtmp&#45;&gt;rtmp_adapter -->
<g id="edge3" class="edge">
<title>rtmp&#45;&gt;rtmp_adapter</title>
<path fill="none" stroke="#2e7d32" d="M178.7,-2093.1C223.85,-2055.44 331.21,-1965.91 382.61,-1923.04"/>
<polygon fill="#2e7d32" stroke="#2e7d32" points="384.93,-1925.66 390.36,-1916.57 380.44,-1920.29 384.93,-1925.66"/>
</g>
<!-- files -->
<g id="node5" class="node">
<title>files</title>
<polygon fill="#fff3cd" stroke="black" points="350,-2129.36 284,-2129.36 284,-2093.36 350,-2093.36 350,-2129.36"/>
<text text-anchor="middle" x="317" y="-2108.86" font-family="Arial" font-size="10.00">File Upload</text>
</g>
<!-- file_adapter -->
<g id="node9" class="node">
<title>file_adapter</title>
<polygon fill="#fff3cd" stroke="black" points="640,-1916.36 574,-1916.36 574,-1880.36 640,-1880.36 640,-1916.36"/>
<text text-anchor="middle" x="607" y="-1895.86" font-family="Arial" font-size="10.00">FileAdapter</text>
</g>
<!-- files&#45;&gt;file_adapter -->
<g id="edge27" class="edge">
<title>files&#45;&gt;file_adapter</title>
<path fill="none" stroke="#f57f17" stroke-dasharray="5,2" d="M340.73,-2093.1C392.69,-2055.29 516.55,-1965.17 575.19,-1922.51"/>
<polygon fill="#f57f17" stroke="#f57f17" points="577.32,-1925.29 583.35,-1916.57 573.2,-1919.63 577.32,-1925.29"/>
</g>
<!-- base_adapter -->
<g id="node6" class="node">
<title>base_adapter</title>
<polygon fill="#e1bee7" stroke="black" points="563,-2129.36 459,-2129.36 459,-2093.36 563,-2093.36 563,-2129.36"/>
<text text-anchor="middle" x="511" y="-2114.36" font-family="Arial" font-size="10.00">BaseSourceAdapter</text>
<text text-anchor="middle" x="511" y="-2103.36" font-family="Arial" font-size="10.00">(Abstract)</text>
</g>
<!-- base_adapter&#45;&gt;webcam_adapter -->
<g id="edge37" class="edge">
<title>base_adapter&#45;&gt;webcam_adapter</title>
<path fill="none" stroke="gray" stroke-dasharray="1,5" d="M511,-2093.1C511,-2056.45 511,-1970.66 511,-1926.58"/>
<polygon fill="gray" stroke="gray" points="514.5,-1926.57 511,-1916.57 507.5,-1926.57 514.5,-1926.57"/>
</g>
<!-- base_adapter&#45;&gt;rtmp_adapter -->
<g id="edge38" class="edge">
<title>base_adapter&#45;&gt;rtmp_adapter</title>
<path fill="none" stroke="gray" stroke-dasharray="1,5" d="M502.82,-2093.1C485.34,-2056.22 444.27,-1969.57 423.5,-1925.74"/>
<polygon fill="gray" stroke="gray" points="426.6,-1924.11 419.16,-1916.57 420.28,-1927.11 426.6,-1924.11"/>
</g>
<!-- base_adapter&#45;&gt;file_adapter -->
<g id="edge39" class="edge">
<title>base_adapter&#45;&gt;file_adapter</title>
<path fill="none" stroke="gray" stroke-dasharray="1,5" d="M518.86,-2093.1C535.63,-2056.22 575.06,-1969.57 595,-1925.74"/>
<polygon fill="gray" stroke="gray" points="598.21,-1927.12 599.17,-1916.57 591.84,-1924.22 598.21,-1927.12"/>
</g>
<!-- django -->
<g id="node10" class="node">
<title>django</title>
<polygon fill="#d4edda" stroke="black" points="544.5,-1642.86 477.5,-1642.86 477.5,-1601.86 544.5,-1601.86 544.5,-1642.86"/>
<text text-anchor="middle" x="511" y="-1630.86" font-family="Arial" font-size="10.00">Django API</text>
<text text-anchor="middle" x="511" y="-1619.86" font-family="Arial" font-size="10.00">+ Channels</text>
<text text-anchor="middle" x="511" y="-1608.86" font-family="Arial" font-size="10.00">:8000</text>
</g>
<!-- webcam_adapter&#45;&gt;django -->
<g id="edge4" class="edge">
<title>webcam_adapter&#45;&gt;django</title>
<path fill="none" stroke="#2e7d32" d="M511,-1880.22C511,-1834.77 511,-1710.7 511,-1653.27"/>
<polygon fill="#2e7d32" stroke="#2e7d32" points="514.5,-1653.03 511,-1643.03 507.5,-1653.03 514.5,-1653.03"/>
</g>
<!-- rtmp_adapter&#45;&gt;django -->
<g id="edge5" class="edge">
<title>rtmp_adapter&#45;&gt;django</title>
<path fill="none" stroke="#2e7d32" d="M417.26,-1880.22C433.91,-1834.58 479.5,-1709.67 500.35,-1652.55"/>
<polygon fill="#2e7d32" stroke="#2e7d32" points="503.68,-1653.63 503.82,-1643.03 497.11,-1651.23 503.68,-1653.63"/>
</g>
<!-- file_adapter&#45;&gt;django -->
<g id="edge28" class="edge">
<title>file_adapter&#45;&gt;django</title>
<path fill="none" stroke="#f57f17" stroke-dasharray="5,2" d="M600.99,-1880.22C585,-1834.58 541.24,-1709.67 521.23,-1652.55"/>
<polygon fill="#f57f17" stroke="#f57f17" points="524.5,-1651.31 517.89,-1643.03 517.89,-1653.63 524.5,-1651.31"/>
</g>
<!-- postgres -->
<g id="node11" class="node">
<title>postgres</title>
<polygon fill="#d4edda" stroke="black" points="645,-1307.36 575,-1307.36 575,-1271.36 645,-1271.36 645,-1307.36"/>
<text text-anchor="middle" x="610" y="-1292.36" font-family="Arial" font-size="10.00">PostgreSQL</text>
<text text-anchor="middle" x="610" y="-1281.36" font-family="Arial" font-size="10.00">Database</text>
</g>
<!-- django&#45;&gt;postgres -->
<g id="edge6" class="edge">
<title>django&#45;&gt;postgres</title>
<path fill="none" stroke="#2e7d32" d="M516.9,-1601.65C533.81,-1545.09 582.53,-1382.21 601.91,-1317.42"/>
<polygon fill="#2e7d32" stroke="#2e7d32" points="605.35,-1318.13 604.86,-1307.54 598.64,-1316.12 605.35,-1318.13"/>
</g>
<!-- redis -->
<g id="node12" class="node">
<title>redis</title>
<polygon fill="#d4edda" stroke="black" points="557,-1307.36 471,-1307.36 471,-1271.36 557,-1271.36 557,-1307.36"/>
<text text-anchor="middle" x="514" y="-1292.36" font-family="Arial" font-size="10.00">Redis</text>
<text text-anchor="middle" x="514" y="-1281.36" font-family="Arial" font-size="10.00">Cache &amp; Broker</text>
</g>
<!-- django&#45;&gt;redis -->
<g id="edge7" class="edge">
<title>django&#45;&gt;redis</title>
<path fill="none" stroke="#2e7d32" d="M511.18,-1601.65C511.69,-1545.21 513.16,-1382.88 513.75,-1317.82"/>
<polygon fill="#2e7d32" stroke="#2e7d32" points="517.25,-1317.58 513.84,-1307.54 510.25,-1317.51 517.25,-1317.58"/>
</g>
<!-- local_storage -->
<g id="node33" class="node">
<title>local_storage</title>
<polygon fill="#d4edda" stroke="black" points="873,-1307.36 795,-1307.36 795,-1271.36 873,-1271.36 873,-1307.36"/>
<text text-anchor="middle" x="834" y="-1292.36" font-family="Arial" font-size="10.00">Local Files</text>
<text text-anchor="middle" x="834" y="-1281.36" font-family="Arial" font-size="10.00">(nginx&#45;served)</text>
</g>
<!-- django&#45;&gt;local_storage -->
<g id="edge8" class="edge">
<title>django&#45;&gt;local_storage</title>
<path fill="none" stroke="#2e7d32" d="M530.99,-1601.86C556.65,-1576.73 602.47,-1531.62 641,-1492.36 703,-1429.17 774.7,-1353.41 810.75,-1315.12"/>
<polygon fill="#2e7d32" stroke="#2e7d32" points="813.58,-1317.22 817.88,-1307.54 808.48,-1312.42 813.58,-1317.22"/>
</g>
<!-- gcs_storage -->
<g id="node34" class="node">
<title>gcs_storage</title>
<polygon fill="#d4edda" stroke="black" points="967,-1307.36 891,-1307.36 891,-1271.36 967,-1271.36 967,-1307.36"/>
<text text-anchor="middle" x="929" y="-1292.36" font-family="Arial" font-size="10.00">Google Cloud</text>
<text text-anchor="middle" x="929" y="-1281.36" font-family="Arial" font-size="10.00">Storage</text>
</g>
<!-- django&#45;&gt;gcs_storage -->
<g id="edge9" class="edge">
<title>django&#45;&gt;gcs_storage</title>
<path fill="none" stroke="#2e7d32" d="M539.59,-1601.82C603.37,-1557.75 761.21,-1446.08 882,-1338.86 890.29,-1331.51 898.86,-1322.97 906.38,-1315.13"/>
<polygon fill="#2e7d32" stroke="#2e7d32" points="909.18,-1317.27 913.5,-1307.59 904.09,-1312.46 909.18,-1317.27"/>
</g>
<!-- angular -->
<g id="node35" class="node">
<title>angular</title>
<polygon fill="#d4edda" stroke="black" points="755,-1309.86 669,-1309.86 669,-1268.86 755,-1268.86 755,-1309.86"/>
<text text-anchor="middle" x="712" y="-1297.86" font-family="Arial" font-size="10.00">Angular 17 SPA</text>
<text text-anchor="middle" x="712" y="-1286.86" font-family="Arial" font-size="10.00">+ WebSocket</text>
<text text-anchor="middle" x="712" y="-1275.86" font-family="Arial" font-size="10.00">:4200</text>
</g>
<!-- django&#45;&gt;angular -->
<g id="edge24" class="edge">
<title>django&#45;&gt;angular</title>
<path fill="none" stroke="#2e7d32" d="M522.79,-1601.86C539.82,-1573.69 572.29,-1520.01 600,-1474.36 633.4,-1419.34 672.52,-1355.13 694.56,-1318.96"/>
<polygon fill="#2e7d32" stroke="#2e7d32" points="697.83,-1320.32 700.05,-1309.96 691.86,-1316.68 697.83,-1320.32"/>
<text text-anchor="middle" x="620.5" y="-1485.96" font-family="Arial" font-size="8.00">WebSocket</text>
<text text-anchor="middle" x="620.5" y="-1476.96" font-family="Arial" font-size="8.00">API</text>
</g>
<!-- logo_worker -->
<g id="node25" class="node">
<title>logo_worker</title>
<polygon fill="#d4edda" stroke="black" points="321.5,-976.86 238.5,-976.86 238.5,-935.86 321.5,-935.86 321.5,-976.86"/>
<text text-anchor="middle" x="280" y="-964.86" font-family="Arial" font-size="10.00">Logo Detection</text>
<text text-anchor="middle" x="280" y="-953.86" font-family="Arial" font-size="10.00">Worker</text>
<text text-anchor="middle" x="280" y="-942.86" font-family="Arial" font-size="10.00">(logo_queue)</text>
</g>
<!-- redis&#45;&gt;logo_worker -->
<g id="edge18" class="edge">
<title>redis&#45;&gt;logo_worker</title>
<path fill="none" stroke="#2e7d32" d="M505.3,-1271.06C490.94,-1243 460.77,-1186.2 430,-1141.36 389.84,-1082.85 335.84,-1019.8 304.79,-984.8"/>
<polygon fill="#2e7d32" stroke="#2e7d32" points="307.05,-982.07 297.78,-976.93 301.82,-986.73 307.05,-982.07"/>
</g>
<!-- visual_worker -->
<g id="node26" class="node">
<title>visual_worker</title>
<polygon fill="#fff3cd" stroke="black" points="430.5,-976.86 339.5,-976.86 339.5,-935.86 430.5,-935.86 430.5,-976.86"/>
<text text-anchor="middle" x="385" y="-964.86" font-family="Arial" font-size="10.00">Visual Properties</text>
<text text-anchor="middle" x="385" y="-953.86" font-family="Arial" font-size="10.00">Worker</text>
<text text-anchor="middle" x="385" y="-942.86" font-family="Arial" font-size="10.00">(visual_queue)</text>
</g>
<!-- redis&#45;&gt;visual_worker -->
<g id="edge29" class="edge">
<title>redis&#45;&gt;visual_worker</title>
<path fill="none" stroke="#f57f17" stroke-dasharray="5,2" d="M508.23,-1271.05C498.95,-1243.44 479.93,-1187.83 462,-1141.36 440.7,-1086.14 413.51,-1022.63 397.8,-986.52"/>
<polygon fill="#f57f17" stroke="#f57f17" points="400.89,-984.86 393.69,-977.09 394.48,-987.66 400.89,-984.86"/>
</g>
<!-- audio_worker -->
<g id="node27" class="node">
<title>audio_worker</title>
<polygon fill="#fff3cd" stroke="black" points="644.5,-976.86 557.5,-976.86 557.5,-935.86 644.5,-935.86 644.5,-976.86"/>
<text text-anchor="middle" x="601" y="-964.86" font-family="Arial" font-size="10.00">Audio Transcript</text>
<text text-anchor="middle" x="601" y="-953.86" font-family="Arial" font-size="10.00">Worker</text>
<text text-anchor="middle" x="601" y="-942.86" font-family="Arial" font-size="10.00">(audio_queue)</text>
</g>
<!-- redis&#45;&gt;audio_worker -->
<g id="edge30" class="edge">
<title>redis&#45;&gt;audio_worker</title>
<path fill="none" stroke="#f57f17" stroke-dasharray="5,2" d="M518.56,-1271.03C532.63,-1217.5 575.52,-1054.31 593.23,-986.94"/>
<polygon fill="#f57f17" stroke="#f57f17" points="596.69,-987.54 595.84,-976.98 589.92,-985.76 596.69,-987.54"/>
</g>
<!-- text_worker -->
<g id="node28" class="node">
<title>text_worker</title>
<polygon fill="#fff3cd" stroke="black" points="539,-976.86 449,-976.86 449,-935.86 539,-935.86 539,-976.86"/>
<text text-anchor="middle" x="494" y="-964.86" font-family="Arial" font-size="10.00">Text Recognition</text>
<text text-anchor="middle" x="494" y="-953.86" font-family="Arial" font-size="10.00">Worker</text>
<text text-anchor="middle" x="494" y="-942.86" font-family="Arial" font-size="10.00">(text_queue)</text>
</g>
<!-- redis&#45;&gt;text_worker -->
<g id="edge31" class="edge">
<title>redis&#45;&gt;text_worker</title>
<path fill="none" stroke="#f57f17" stroke-dasharray="5,2" d="M512.95,-1271.03C509.72,-1217.61 499.9,-1054.98 495.81,-987.35"/>
<polygon fill="#f57f17" stroke="#f57f17" points="499.28,-986.75 495.19,-976.98 492.29,-987.17 499.28,-986.75"/>
</g>
<!-- nginx -->
<g id="node13" class="node">
<title>nginx</title>
<polygon fill="#d4edda" stroke="black" points="645,-1642.86 563,-1642.86 563,-1601.86 645,-1601.86 645,-1642.86"/>
<text text-anchor="middle" x="604" y="-1630.86" font-family="Arial" font-size="10.00">NGINX</text>
<text text-anchor="middle" x="604" y="-1619.86" font-family="Arial" font-size="10.00">Reverse Proxy</text>
<text text-anchor="middle" x="604" y="-1608.86" font-family="Arial" font-size="10.00">:80</text>
</g>
<!-- nginx&#45;&gt;angular -->
<g id="edge26" class="edge">
<title>nginx&#45;&gt;angular</title>
<path fill="none" stroke="#2e7d32" d="M610.43,-1601.65C628.67,-1545.77 680.77,-1386.09 702.4,-1319.78"/>
<polygon fill="#2e7d32" stroke="#2e7d32" points="705.83,-1320.57 705.6,-1309.97 699.17,-1318.39 705.83,-1320.57"/>
</g>
<!-- base_strategy -->
<g id="node14" class="node">
<title>base_strategy</title>
<polygon fill="#c8e6c9" stroke="black" points="1614.5,-974.36 1495.5,-974.36 1495.5,-938.36 1614.5,-938.36 1614.5,-974.36"/>
<text text-anchor="middle" x="1555" y="-959.36" font-family="Arial" font-size="10.00">BaseExecutionStrategy</text>
<text text-anchor="middle" x="1555" y="-948.36" font-family="Arial" font-size="10.00">(Abstract)</text>
</g>
<!-- local_strategy -->
<g id="node15" class="node">
<title>local_strategy</title>
<polygon fill="#d4edda" stroke="black" points="1500.5,-698.36 1423.5,-698.36 1423.5,-662.36 1500.5,-662.36 1500.5,-698.36"/>
<text text-anchor="middle" x="1462" y="-677.86" font-family="Arial" font-size="10.00">LocalStrategy</text>
</g>
<!-- base_strategy&#45;&gt;local_strategy -->
<g id="edge40" class="edge">
<title>base_strategy&#45;&gt;local_strategy</title>
<path fill="none" stroke="gray" stroke-dasharray="1,5" d="M1549.18,-938.22C1533.46,-891.9 1490.03,-763.94 1471.06,-708.06"/>
<polygon fill="gray" stroke="gray" points="1474.34,-706.84 1467.82,-698.5 1467.72,-709.09 1474.34,-706.84"/>
</g>
<!-- lan_strategy -->
<g id="node16" class="node">
<title>lan_strategy</title>
<polygon fill="#fff3cd" stroke="black" points="1591.5,-698.36 1518.5,-698.36 1518.5,-662.36 1591.5,-662.36 1591.5,-698.36"/>
<text text-anchor="middle" x="1555" y="-677.86" font-family="Arial" font-size="10.00">LANStrategy</text>
</g>
<!-- base_strategy&#45;&gt;lan_strategy -->
<g id="edge41" class="edge">
<title>base_strategy&#45;&gt;lan_strategy</title>
<path fill="none" stroke="gray" stroke-dasharray="1,5" d="M1555,-938.22C1555,-892.09 1555,-765 1555,-708.76"/>
<polygon fill="gray" stroke="gray" points="1558.5,-708.5 1555,-698.5 1551.5,-708.5 1558.5,-708.5"/>
</g>
<!-- cloud_strategy -->
<g id="node17" class="node">
<title>cloud_strategy</title>
<polygon fill="#fff3cd" stroke="black" points="1688.5,-698.36 1609.5,-698.36 1609.5,-662.36 1688.5,-662.36 1688.5,-698.36"/>
<text text-anchor="middle" x="1649" y="-677.86" font-family="Arial" font-size="10.00">CloudStrategy</text>
</g>
<!-- base_strategy&#45;&gt;cloud_strategy -->
<g id="edge42" class="edge">
<title>base_strategy&#45;&gt;cloud_strategy</title>
<path fill="none" stroke="gray" stroke-dasharray="1,5" d="M1560.88,-938.22C1576.77,-891.9 1620.67,-763.94 1639.84,-708.06"/>
<polygon fill="gray" stroke="gray" points="1643.19,-709.09 1643.12,-698.5 1636.57,-706.82 1643.19,-709.09"/>
</g>
<!-- clip_adapter -->
<g id="node30" class="node">
<title>clip_adapter</title>
<polygon fill="#d4edda" stroke="black" points="1186,-435.36 1114,-435.36 1114,-399.36 1186,-399.36 1186,-435.36"/>
<text text-anchor="middle" x="1150" y="-420.36" font-family="Arial" font-size="10.00">CLIPAdapter</text>
<text text-anchor="middle" x="1150" y="-409.36" font-family="Arial" font-size="10.00">(Local)</text>
</g>
<!-- local_strategy&#45;&gt;clip_adapter -->
<g id="edge20" class="edge">
<title>local_strategy&#45;&gt;clip_adapter</title>
<path fill="none" stroke="#2e7d32" d="M1441.53,-662.24C1387.43,-616.98 1240.55,-494.11 1178.39,-442.11"/>
<polygon fill="#2e7d32" stroke="#2e7d32" points="1180.46,-439.28 1170.55,-435.55 1175.97,-444.65 1180.46,-439.28"/>
</g>
<!-- gcp_vision -->
<g id="node31" class="node">
<title>gcp_vision</title>
<polygon fill="#d4edda" stroke="black" points="1303.5,-435.36 1204.5,-435.36 1204.5,-399.36 1303.5,-399.36 1303.5,-435.36"/>
<text text-anchor="middle" x="1254" y="-420.36" font-family="Arial" font-size="10.00">GCPVisionAdapter</text>
<text text-anchor="middle" x="1254" y="-409.36" font-family="Arial" font-size="10.00">(Cloud)</text>
</g>
<!-- local_strategy&#45;&gt;gcp_vision -->
<g id="edge21" class="edge">
<title>local_strategy&#45;&gt;gcp_vision</title>
<path fill="none" stroke="#2e7d32" d="M1449.71,-661.94C1430.79,-635.31 1393.12,-583.07 1359,-540.36 1331.42,-505.84 1297.85,-467.42 1276.21,-443.09"/>
<polygon fill="#2e7d32" stroke="#2e7d32" points="1278.63,-440.54 1269.36,-435.4 1273.4,-445.19 1278.63,-440.54"/>
</g>
<!-- yolo_adapter -->
<g id="node32" class="node">
<title>yolo_adapter</title>
<polygon fill="#fff3cd" stroke="black" points="1398.5,-435.36 1321.5,-435.36 1321.5,-399.36 1398.5,-399.36 1398.5,-435.36"/>
<text text-anchor="middle" x="1360" y="-420.36" font-family="Arial" font-size="10.00">YOLOAdapter</text>
<text text-anchor="middle" x="1360" y="-409.36" font-family="Arial" font-size="10.00">(Planned)</text>
</g>
<!-- lan_strategy&#45;&gt;yolo_adapter -->
<g id="edge36" class="edge">
<title>lan_strategy&#45;&gt;yolo_adapter</title>
<path fill="none" stroke="#f57f17" stroke-dasharray="5,2" d="M1542.21,-662.24C1508.74,-617.44 1418.46,-496.61 1378.95,-443.73"/>
<polygon fill="#f57f17" stroke="#f57f17" points="1381.63,-441.47 1372.84,-435.55 1376.02,-445.66 1381.63,-441.47"/>
</g>
<!-- speech_api -->
<g id="node38" class="node">
<title>speech_api</title>
<polygon fill="#fff3cd" stroke="black" points="1517.5,-117.36 1416.5,-117.36 1416.5,-81.36 1517.5,-81.36 1517.5,-117.36"/>
<text text-anchor="middle" x="1467" y="-102.36" font-family="Arial" font-size="10.00">Speech&#45;to&#45;Text API</text>
<text text-anchor="middle" x="1467" y="-91.36" font-family="Arial" font-size="10.00">(Audio Transcript)</text>
</g>
<!-- cloud_strategy&#45;&gt;speech_api -->
<g id="edge35" class="edge">
<title>cloud_strategy&#45;&gt;speech_api</title>
<path fill="none" stroke="#f57f17" stroke-dasharray="5,2" d="M1643.65,-662.35C1617.93,-580.53 1506.94,-227.42 1475.39,-127.06"/>
<polygon fill="#f57f17" stroke="#f57f17" points="1478.69,-125.87 1472.35,-117.38 1472.01,-127.97 1478.69,-125.87"/>
</g>
<!-- base_event_source -->
<g id="node18" class="node">
<title>base_event_source</title>
<polygon fill="#c8e6c9" stroke="black" points="1257,-1307.36 1145,-1307.36 1145,-1271.36 1257,-1271.36 1257,-1307.36"/>
<text text-anchor="middle" x="1201" y="-1292.36" font-family="Arial" font-size="10.00">SegmentEventSource</text>
<text text-anchor="middle" x="1201" y="-1281.36" font-family="Arial" font-size="10.00">(Abstract)</text>
</g>
<!-- file_watcher_source -->
<g id="node19" class="node">
<title>file_watcher_source</title>
<polygon fill="#d4edda" stroke="black" points="1116.5,-974.36 991.5,-974.36 991.5,-938.36 1116.5,-938.36 1116.5,-974.36"/>
<text text-anchor="middle" x="1054" y="-959.36" font-family="Arial" font-size="10.00">FileWatcherEventSource</text>
<text text-anchor="middle" x="1054" y="-948.36" font-family="Arial" font-size="10.00">(Local/LAN)</text>
</g>
<!-- base_event_source&#45;&gt;file_watcher_source -->
<g id="edge46" class="edge">
<title>base_event_source&#45;&gt;file_watcher_source</title>
<path fill="none" stroke="gray" stroke-dasharray="1,5" d="M1193.3,-1271.03C1169.14,-1216.63 1094.69,-1048.98 1065.71,-983.73"/>
<polygon fill="gray" stroke="gray" points="1068.88,-982.24 1061.62,-974.52 1062.48,-985.08 1068.88,-982.24"/>
</g>
<!-- cloud_storage_source -->
<g id="node20" class="node">
<title>cloud_storage_source</title>
<polygon fill="#d4edda" stroke="black" points="1267,-974.36 1135,-974.36 1135,-938.36 1267,-938.36 1267,-974.36"/>
<text text-anchor="middle" x="1201" y="-959.36" font-family="Arial" font-size="10.00">CloudStorageEventSource</text>
<text text-anchor="middle" x="1201" y="-948.36" font-family="Arial" font-size="10.00">(GCS Pub/Sub)</text>
</g>
<!-- base_event_source&#45;&gt;cloud_storage_source -->
<g id="edge47" class="edge">
<title>base_event_source&#45;&gt;cloud_storage_source</title>
<path fill="none" stroke="gray" stroke-dasharray="1,5" d="M1201,-1271.03C1201,-1216.85 1201,-1050.35 1201,-984.54"/>
<polygon fill="gray" stroke="gray" points="1204.5,-984.52 1201,-974.52 1197.5,-984.52 1204.5,-984.52"/>
</g>
<!-- webhook_source -->
<g id="node21" class="node">
<title>webhook_source</title>
<polygon fill="#d4edda" stroke="black" points="1398.5,-974.36 1285.5,-974.36 1285.5,-938.36 1398.5,-938.36 1398.5,-974.36"/>
<text text-anchor="middle" x="1342" y="-959.36" font-family="Arial" font-size="10.00">WebhookEventSource</text>
<text text-anchor="middle" x="1342" y="-948.36" font-family="Arial" font-size="10.00">(External)</text>
</g>
<!-- base_event_source&#45;&gt;webhook_source -->
<g id="edge48" class="edge">
<title>base_event_source&#45;&gt;webhook_source</title>
<path fill="none" stroke="gray" stroke-dasharray="1,5" d="M1208.38,-1271.03C1231.56,-1216.63 1302.97,-1048.98 1330.77,-983.73"/>
<polygon fill="gray" stroke="gray" points="1333.99,-985.09 1334.69,-974.52 1327.55,-982.35 1333.99,-985.09"/>
</g>
<!-- event_source_manager -->
<g id="node22" class="node">
<title>event_source_manager</title>
<polygon fill="#d4edda" stroke="black" points="1090,-698.36 980,-698.36 980,-662.36 1090,-662.36 1090,-698.36"/>
<text text-anchor="middle" x="1035" y="-683.36" font-family="Arial" font-size="10.00">EventSourceManager</text>
<text text-anchor="middle" x="1035" y="-672.36" font-family="Arial" font-size="10.00">(Environment&#45;based)</text>
</g>
<!-- file_watcher_source&#45;&gt;event_source_manager -->
<g id="edge12" class="edge">
<title>file_watcher_source&#45;&gt;event_source_manager</title>
<path fill="none" stroke="#2e7d32" d="M1052.81,-938.22C1049.61,-892.09 1040.8,-765 1036.9,-708.76"/>
<polygon fill="#2e7d32" stroke="#2e7d32" points="1040.37,-708.23 1036.19,-698.5 1033.39,-708.71 1040.37,-708.23"/>
</g>
<!-- cloud_storage_source&#45;&gt;event_source_manager -->
<g id="edge13" class="edge">
<title>cloud_storage_source&#45;&gt;event_source_manager</title>
<path fill="none" stroke="#2e7d32" d="M1190.62,-938.22C1162.43,-891.71 1084.38,-762.88 1050.75,-707.36"/>
<polygon fill="#2e7d32" stroke="#2e7d32" points="1053.56,-705.24 1045.38,-698.5 1047.57,-708.86 1053.56,-705.24"/>
</g>
<!-- webhook_source&#45;&gt;event_source_manager -->
<g id="edge14" class="edge">
<title>webhook_source&#45;&gt;event_source_manager</title>
<path fill="none" stroke="#2e7d32" d="M1322.8,-938.22C1270.03,-891.13 1122.74,-759.67 1061.86,-705.33"/>
<polygon fill="#2e7d32" stroke="#2e7d32" points="1063.99,-702.54 1054.2,-698.5 1059.33,-707.77 1063.99,-702.54"/>
</g>
<!-- redis_events -->
<g id="node23" class="node">
<title>redis_events</title>
<polygon fill="#d4edda" stroke="black" points="1078,-435.36 976,-435.36 976,-399.36 1078,-399.36 1078,-435.36"/>
<text text-anchor="middle" x="1027" y="-420.36" font-family="Arial" font-size="10.00">Redis Event Queue</text>
<text text-anchor="middle" x="1027" y="-409.36" font-family="Arial" font-size="10.00">(segment_events)</text>
</g>
<!-- event_source_manager&#45;&gt;redis_events -->
<g id="edge15" class="edge">
<title>event_source_manager&#45;&gt;redis_events</title>
<path fill="none" stroke="#2e7d32" d="M1034.48,-662.24C1033.12,-617.99 1029.49,-499.58 1027.84,-445.72"/>
<polygon fill="#2e7d32" stroke="#2e7d32" points="1031.33,-445.44 1027.53,-435.55 1024.33,-445.65 1031.33,-445.44"/>
<text text-anchor="middle" x="1048" y="-551.96" font-family="Arial" font-size="8.00">publishes</text>
<text text-anchor="middle" x="1048" y="-542.96" font-family="Arial" font-size="8.00">events</text>
</g>
<!-- event_processor -->
<g id="node24" class="node">
<title>event_processor</title>
<polygon fill="#d4edda" stroke="black" points="1062,-117.36 968,-117.36 968,-81.36 1062,-81.36 1062,-117.36"/>
<text text-anchor="middle" x="1015" y="-102.36" font-family="Arial" font-size="10.00">Event Processor</text>
<text text-anchor="middle" x="1015" y="-91.36" font-family="Arial" font-size="10.00">(triggers analysis)</text>
</g>
<!-- redis_events&#45;&gt;event_processor -->
<g id="edge16" class="edge">
<title>redis_events&#45;&gt;event_processor</title>
<path fill="none" stroke="#2e7d32" d="M1026.34,-398.92C1024.35,-346.68 1018.45,-191.17 1016.04,-127.75"/>
<polygon fill="#2e7d32" stroke="#2e7d32" points="1019.52,-127.22 1015.65,-117.36 1012.53,-127.49 1019.52,-127.22"/>
<text text-anchor="middle" x="1040.5" y="-288.96" font-family="Arial" font-size="8.00">consumes</text>
<text text-anchor="middle" x="1040.5" y="-279.96" font-family="Arial" font-size="8.00">events</text>
</g>
<!-- event_processor&#45;&gt;logo_worker -->
<g id="edge17" class="edge">
<title>event_processor&#45;&gt;logo_worker</title>
<path fill="none" stroke="#2e7d32" d="M1000.19,-117.59C908.47,-224.29 417.92,-794.92 303.76,-927.73"/>
<polygon fill="#2e7d32" stroke="#2e7d32" points="300.95,-925.62 297.09,-935.49 306.26,-930.18 300.95,-925.62"/>
<text text-anchor="middle" x="649" y="-551.96" font-family="Arial" font-size="8.00">triggers</text>
<text text-anchor="middle" x="649" y="-542.96" font-family="Arial" font-size="8.00">analysis</text>
</g>
<!-- logo_worker&#45;&gt;django -->
<g id="edge23" class="edge">
<title>logo_worker&#45;&gt;django</title>
<path fill="none" stroke="#2e7d32" d="M286.79,-976.88C319.56,-1071.08 461.45,-1478.93 500.83,-1592.13"/>
<polygon fill="#2e7d32" stroke="#2e7d32" points="497.62,-1593.56 504.21,-1601.85 504.23,-1591.25 497.62,-1593.56"/>
<text text-anchor="middle" x="424" y="-1291.96" font-family="Arial" font-size="8.00">analysis</text>
<text text-anchor="middle" x="424" y="-1282.96" font-family="Arial" font-size="8.00">results</text>
</g>
<!-- logo_worker&#45;&gt;local_strategy -->
<g id="edge19" class="edge">
<title>logo_worker&#45;&gt;local_strategy</title>
<path fill="none" stroke="#2e7d32" d="M311.48,-935.79C317.46,-932.73 323.79,-929.91 330,-927.86 793.99,-774.61 980.08,-957.75 1411,-727.36 1421.47,-721.77 1431.5,-713.57 1439.86,-705.64"/>
<polygon fill="#2e7d32" stroke="#2e7d32" points="1442.41,-708.04 1447.03,-698.51 1437.47,-703.08 1442.41,-708.04"/>
</g>
<!-- visual_worker&#45;&gt;lan_strategy -->
<g id="edge32" class="edge">
<title>visual_worker&#45;&gt;lan_strategy</title>
<path fill="none" stroke="#f57f17" stroke-dasharray="5,2" d="M419.45,-935.83C426.1,-932.73 433.14,-929.88 440,-927.86 771.53,-830.16 877.3,-925.09 1213,-842.86 1350.56,-809.17 1391.81,-805.41 1510,-727.36 1518.95,-721.45 1527.52,-713.51 1534.73,-705.88"/>
<polygon fill="#f57f17" stroke="#f57f17" points="1537.33,-708.22 1541.45,-698.45 1532.14,-703.52 1537.33,-708.22"/>
</g>
<!-- audio_worker&#45;&gt;cloud_strategy -->
<g id="edge33" class="edge">
<title>audio_worker&#45;&gt;cloud_strategy</title>
<path fill="none" stroke="#f57f17" stroke-dasharray="5,2" d="M636.45,-935.83C643.12,-932.77 650.16,-929.94 657,-927.86 931.18,-844.74 1018.2,-912.94 1296,-842.86 1436.55,-807.41 1478.43,-804.73 1601,-727.36 1610.37,-721.45 1619.46,-713.5 1627.17,-705.88"/>
<polygon fill="#f57f17" stroke="#f57f17" points="1629.92,-708.06 1634.37,-698.45 1624.9,-703.19 1629.92,-708.06"/>
</g>
<!-- text_worker&#45;&gt;cloud_strategy -->
<g id="edge34" class="edge">
<title>text_worker&#45;&gt;cloud_strategy</title>
<path fill="none" stroke="#f57f17" stroke-dasharray="5,2" d="M528.76,-935.75C535.33,-932.69 542.25,-929.89 549,-927.86 853.84,-836.46 949.61,-913.18 1260,-842.86 1416.06,-807.51 1464.2,-810.36 1601,-727.36 1610.47,-721.61 1619.59,-713.71 1627.29,-706.07"/>
<polygon fill="#f57f17" stroke="#f57f17" points="1630.06,-708.24 1634.47,-698.61 1625.01,-703.39 1630.06,-708.24"/>
</g>
<!-- base_ai -->
<g id="node29" class="node">
<title>base_ai</title>
<polygon fill="#f8bbd9" stroke="black" points="1300,-698.36 1208,-698.36 1208,-662.36 1300,-662.36 1300,-698.36"/>
<text text-anchor="middle" x="1254" y="-683.36" font-family="Arial" font-size="10.00">DetectionAdapter</text>
<text text-anchor="middle" x="1254" y="-672.36" font-family="Arial" font-size="10.00">(Abstract)</text>
</g>
<!-- base_ai&#45;&gt;clip_adapter -->
<g id="edge43" class="edge">
<title>base_ai&#45;&gt;clip_adapter</title>
<path fill="none" stroke="gray" stroke-dasharray="1,5" d="M1247.18,-662.24C1229.47,-617.81 1181.97,-498.59 1160.63,-445.05"/>
<polygon fill="gray" stroke="gray" points="1163.8,-443.54 1156.85,-435.55 1157.3,-446.14 1163.8,-443.54"/>
</g>
<!-- base_ai&#45;&gt;gcp_vision -->
<g id="edge44" class="edge">
<title>base_ai&#45;&gt;gcp_vision</title>
<path fill="none" stroke="gray" stroke-dasharray="1,5" d="M1254,-662.24C1254,-617.99 1254,-499.58 1254,-445.72"/>
<polygon fill="gray" stroke="gray" points="1257.5,-445.55 1254,-435.55 1250.5,-445.55 1257.5,-445.55"/>
</g>
<!-- base_ai&#45;&gt;yolo_adapter -->
<g id="edge45" class="edge">
<title>base_ai&#45;&gt;yolo_adapter</title>
<path fill="none" stroke="gray" stroke-dasharray="1,5" d="M1260.95,-662.24C1279,-617.81 1327.42,-498.59 1349.16,-445.05"/>
<polygon fill="gray" stroke="gray" points="1352.5,-446.13 1353.02,-435.55 1346.01,-443.5 1352.5,-446.13"/>
</g>
<!-- vision_api -->
<g id="node37" class="node">
<title>vision_api</title>
<polygon fill="#d4edda" stroke="black" points="1398.5,-117.36 1307.5,-117.36 1307.5,-81.36 1398.5,-81.36 1398.5,-117.36"/>
<text text-anchor="middle" x="1353" y="-102.36" font-family="Arial" font-size="10.00">Cloud Vision API</text>
<text text-anchor="middle" x="1353" y="-91.36" font-family="Arial" font-size="10.00">(Logo Detection)</text>
</g>
<!-- gcp_vision&#45;&gt;vision_api -->
<g id="edge22" class="edge">
<title>gcp_vision&#45;&gt;vision_api</title>
<path fill="none" stroke="#2e7d32" d="M1259.46,-398.92C1275.9,-346.47 1324.96,-189.88 1344.67,-126.96"/>
<polygon fill="#2e7d32" stroke="#2e7d32" points="1348.02,-127.95 1347.67,-117.36 1341.34,-125.86 1348.02,-127.95"/>
</g>
<!-- local_storage&#45;&gt;file_watcher_source -->
<g id="edge10" class="edge">
<title>local_storage&#45;&gt;file_watcher_source</title>
<path fill="none" stroke="#2e7d32" d="M839.76,-1271.28C849.65,-1243.04 871.51,-1185.39 899,-1141.36 937.71,-1079.37 995.91,-1016.16 1028.88,-982.36"/>
<polygon fill="#2e7d32" stroke="#2e7d32" points="1031.78,-984.4 1036.3,-974.82 1026.79,-979.49 1031.78,-984.4"/>
<text text-anchor="middle" x="925.5" y="-1152.96" font-family="Arial" font-size="8.00">monitors</text>
<text text-anchor="middle" x="925.5" y="-1143.96" font-family="Arial" font-size="8.00">HLS segments</text>
</g>
<!-- gcs_storage&#45;&gt;cloud_storage_source -->
<g id="edge11" class="edge">
<title>gcs_storage&#45;&gt;cloud_storage_source</title>
<path fill="none" stroke="#2e7d32" d="M943.24,-1271.03C988.22,-1216.29 1127.41,-1046.91 1180.31,-982.54"/>
<polygon fill="#2e7d32" stroke="#2e7d32" points="1183.26,-984.47 1186.9,-974.52 1177.85,-980.02 1183.26,-984.47"/>
<text text-anchor="middle" x="1062" y="-1152.96" font-family="Arial" font-size="8.00">storage</text>
<text text-anchor="middle" x="1062" y="-1143.96" font-family="Arial" font-size="8.00">events</text>
</g>
<!-- hls_player -->
<g id="node36" class="node">
<title>hls_player</title>
<polygon fill="#d4edda" stroke="black" points="770.5,-974.36 669.5,-974.36 669.5,-938.36 770.5,-938.36 770.5,-974.36"/>
<text text-anchor="middle" x="720" y="-959.36" font-family="Arial" font-size="10.00">HLS.js Player</text>
<text text-anchor="middle" x="720" y="-948.36" font-family="Arial" font-size="10.00">+ Canvas Overlays</text>
</g>
<!-- angular&#45;&gt;hls_player -->
<g id="edge25" class="edge">
<title>angular&#45;&gt;hls_player</title>
<path fill="none" stroke="#2e7d32" d="M712.48,-1268.65C713.84,-1212.21 717.76,-1049.88 719.34,-984.82"/>
<polygon fill="#2e7d32" stroke="#2e7d32" points="722.84,-984.63 719.58,-974.54 715.84,-984.46 722.84,-984.63"/>
</g>
</g>
</svg>
