<?xml version="1.0" encoding="UTF-8" standalone="no"?>
<!DOCTYPE svg PUBLIC "-//W3C//DTD SVG 1.1//EN"
 "http://www.w3.org/Graphics/SVG/1.1/DTD/svg11.dtd">
<!-- Generated by graphviz version 2.42.4 (0)
 -->
<!-- Title: MediaAnalyzer Pages: 1 -->
<svg width="864pt" height="1150pt"
 viewBox="0.00 0.00 864.00 1149.74" xmlns="http://www.w3.org/2000/svg" xmlns:xlink="http://www.w3.org/1999/xlink">
<g id="graph0" class="graph" transform="scale(0.85 0.85) rotate(0) translate(4 1352)">
<title>MediaAnalyzer</title>
<polygon fill="white" stroke="transparent" points="-4,4 -4,-1352 1015,-1352 1015,4 -4,4"/>
<g id="clust1" class="cluster">
<title>cluster_legend</title>
<polygon fill="lightgray" stroke="lightgray" points="52,-1081.17 52,-1334.14 152,-1334.14 152,-1081.17 52,-1081.17"/>
<text text-anchor="middle" x="102" y="-1320.54" font-family="Arial" font-size="12.00">Legend</text>
</g>
<g id="clust2" class="cluster">
<title>cluster_sources</title>
<polygon fill="#e3f2fd" stroke="#e3f2fd" points="469,-1207.66 469,-1334.14 711,-1334.14 711,-1207.66 469,-1207.66"/>
<text text-anchor="middle" x="590" y="-1320.54" font-family="Arial" font-size="12.00">Video Sources</text>
</g>
<g id="clust3" class="cluster">
<title>cluster_adapters</title>
<polygon fill="#f3e5f5" stroke="#f3e5f5" points="180,-1081.17 180,-1334.14 461,-1334.14 461,-1081.17 180,-1081.17"/>
<text text-anchor="middle" x="320.5" y="-1320.54" font-family="Arial" font-size="12.00">Source Adapters Pattern</text>
</g>
<g id="clust4" class="cluster">
<title>cluster_core</title>
<polygon fill="#fff3e0" stroke="#fff3e0" points="267,-719.92 267,-1048.25 457,-1048.25 457,-719.92 267,-719.92"/>
<text text-anchor="middle" x="362" y="-1034.65" font-family="Arial" font-size="12.00">Core Platform</text>
</g>
<g id="clust5" class="cluster">
<title>cluster_execution</title>
<polygon fill="#e8f5e8" stroke="#e8f5e8" points="596,-329.2 596,-648.88 877,-648.88 877,-329.2 596,-329.2"/>
<text text-anchor="middle" x="736.5" y="-635.28" font-family="Arial" font-size="12.00">Execution Strategies Pattern</text>
</g>
<g id="clust6" class="cluster">
<title>cluster_events</title>
<polygon fill="#fff3e0" stroke="#fff3e0" points="8,-173.26 8,-648.88 157,-648.88 157,-173.26 8,-173.26"/>
<text text-anchor="middle" x="82.5" y="-635.28" font-family="Arial" font-size="12.00">Event&#45;Driven Processing</text>
</g>
<g id="clust7" class="cluster">
<title>cluster_workers</title>
<polygon fill="#e3f2fd" stroke="#e3f2fd" points="165,-518.06 165,-653.21 588,-653.21 588,-518.06 165,-518.06"/>
<text text-anchor="middle" x="376.5" y="-639.61" font-family="Arial" font-size="12.00">Celery Workers (Queue Segregation)</text>
</g>
<g id="clust8" class="cluster">
<title>cluster_ai_adapters</title>
<polygon fill="#fce4ec" stroke="#fce4ec" points="286,-173.26 286,-455.69 588,-455.69 588,-173.26 286,-173.26"/>
<text text-anchor="middle" x="437" y="-442.09" font-family="Arial" font-size="12.00">Analysis Adapters Pattern</text>
</g>
<g id="clust9" class="cluster">
<title>cluster_storage</title>
<polygon fill="#f1f8e9" stroke="#f1f8e9" points="71,-719.92 71,-846.4 259,-846.4 259,-719.92 71,-719.92"/>
<text text-anchor="middle" x="165" y="-832.8" font-family="Arial" font-size="12.00">Media Storage</text>
</g>
<g id="clust10" class="cluster">
<title>cluster_frontend</title>
<polygon fill="#e8eaf6" stroke="#e8eaf6" points="885,-522.39 885,-850.73 1003,-850.73 1003,-522.39 885,-522.39"/>
<text text-anchor="middle" x="944" y="-837.13" font-family="Arial" font-size="12.00">Frontend</text>
</g>
<g id="clust11" class="cluster">
<title>cluster_cloud</title>
<polygon fill="#e0f2f1" stroke="#e0f2f1" points="615,-13.86 615,-140.34 842,-140.34 842,-13.86 615,-13.86"/>
<text text-anchor="middle" x="728.5" y="-126.74" font-family="Arial" font-size="12.00">GCP Services</text>
</g>
<!-- implemented -->
<g id="node1" class="node">
<title>implemented</title>
<polygon fill="#d4edda" stroke="transparent" points="144,-1270.86 60,-1270.86 60,-1234.86 144,-1234.86 144,-1270.86"/>
<text text-anchor="middle" x="102" y="-1250.36" font-family="Arial" font-size="10.00">✓ Implemented</text>
</g>
<!-- planned -->
<g id="node2" class="node">
<title>planned</title>
<polygon fill="#fff3cd" stroke="transparent" points="132.5,-1143.86 71.5,-1143.86 71.5,-1107.86 132.5,-1107.86 132.5,-1143.86"/>
<text text-anchor="middle" x="102" y="-1123.36" font-family="Arial" font-size="10.00">○ Planned</text>
</g>
<!-- implemented&#45;&gt;planned -->
<!-- webcam -->
<g id="node3" class="node">
<title>webcam</title>
<polygon fill="#d4edda" stroke="black" points="702.5,-1270.86 647.5,-1270.86 647.5,-1234.86 702.5,-1234.86 702.5,-1270.86"/>
<text text-anchor="middle" x="675" y="-1250.36" font-family="Arial" font-size="10.00">Webcam</text>
</g>
<!-- webcam_adapter -->
<g id="node7" class="node">
<title>webcam_adapter</title>
<polygon fill="#d4edda" stroke="black" points="453.5,-1143.86 364.5,-1143.86 364.5,-1107.86 453.5,-1107.86 453.5,-1143.86"/>
<text text-anchor="middle" x="409" y="-1123.36" font-family="Arial" font-size="10.00">WebcamAdapter</text>
</g>
<!-- webcam&#45;&gt;webcam_adapter -->
<g id="edge2" class="edge">
<title>webcam&#45;&gt;webcam_adapter</title>
<path fill="none" stroke="#2e7d32" d="M651.12,-1234.8C646.83,-1232.01 642.35,-1229.25 638,-1226.86 580.22,-1195.07 510.3,-1165.77 463.04,-1147.22"/>
<polygon fill="#2e7d32" stroke="#2e7d32" points="464.2,-1143.91 453.61,-1143.54 461.66,-1150.43 464.2,-1143.91"/>
</g>
<!-- rtmp -->
<g id="node4" class="node">
<title>rtmp</title>
<polygon fill="#d4edda" stroke="black" points="545,-1270.86 477,-1270.86 477,-1234.86 545,-1234.86 545,-1270.86"/>
<text text-anchor="middle" x="511" y="-1250.36" font-family="Arial" font-size="10.00">RTMP/OBS</text>
</g>
<!-- rtmp_adapter -->
<g id="node8" class="node">
<title>rtmp_adapter</title>
<polygon fill="#d4edda" stroke="black" points="262,-1143.86 188,-1143.86 188,-1107.86 262,-1107.86 262,-1143.86"/>
<text text-anchor="middle" x="225" y="-1123.36" font-family="Arial" font-size="10.00">RtmpAdapter</text>
</g>
<!-- rtmp&#45;&gt;rtmp_adapter -->
<g id="edge3" class="edge">
<title>rtmp&#45;&gt;rtmp_adapter</title>
<path fill="none" stroke="#2e7d32" d="M480.55,-1234.74C475.4,-1232.01 470.08,-1229.29 465,-1226.86 398.96,-1195.26 320.27,-1163.56 271.46,-1144.58"/>
<polygon fill="#2e7d32" stroke="#2e7d32" points="272.7,-1141.3 262.11,-1140.95 270.17,-1147.83 272.7,-1141.3"/>
</g>
<!-- files -->
<g id="node5" class="node">
<title>files</title>
<polygon fill="#fff3cd" stroke="black" points="629,-1270.86 563,-1270.86 563,-1234.86 629,-1234.86 629,-1270.86"/>
<text text-anchor="middle" x="596" y="-1250.36" font-family="Arial" font-size="10.00">File Upload</text>
</g>
<!-- file_adapter -->
<g id="node9" class="node">
<title>file_adapter</title>
<polygon fill="#fff3cd" stroke="black" points="346,-1143.86 280,-1143.86 280,-1107.86 346,-1107.86 346,-1143.86"/>
<text text-anchor="middle" x="313" y="-1123.36" font-family="Arial" font-size="10.00">FileAdapter</text>
</g>
<!-- files&#45;&gt;file_adapter -->
<g id="edge23" class="edge">
<title>files&#45;&gt;file_adapter</title>
<path fill="none" stroke="#f57f17" stroke-dasharray="5,2" d="M568.3,-1234.62C563.59,-1231.9 558.7,-1229.22 554,-1226.86 535.42,-1217.54 419.56,-1170.16 355.49,-1144.1"/>
<polygon fill="#f57f17" stroke="#f57f17" points="356.64,-1140.79 346.05,-1140.27 354,-1147.28 356.64,-1140.79"/>
</g>
<!-- base_adapter -->
<g id="node6" class="node">
<title>base_adapter</title>
<polygon fill="#e1bee7" stroke="black" points="365,-1270.86 261,-1270.86 261,-1234.86 365,-1234.86 365,-1270.86"/>
<text text-anchor="middle" x="313" y="-1255.86" font-family="Arial" font-size="10.00">BaseSourceAdapter</text>
<text text-anchor="middle" x="313" y="-1244.86" font-family="Arial" font-size="10.00">(Abstract)</text>
</g>
<!-- base_adapter&#45;&gt;webcam_adapter -->
<g id="edge33" class="edge">
<title>base_adapter&#45;&gt;webcam_adapter</title>
<path fill="none" stroke="gray" stroke-dasharray="1,5" d="M326.15,-1234.74C342.5,-1213.45 370.56,-1176.91 389.44,-1152.33"/>
<polygon fill="gray" stroke="gray" points="392.39,-1154.24 395.7,-1144.17 386.84,-1149.97 392.39,-1154.24"/>
</g>
<!-- base_adapter&#45;&gt;rtmp_adapter -->
<g id="edge34" class="edge">
<title>base_adapter&#45;&gt;rtmp_adapter</title>
<path fill="none" stroke="gray" stroke-dasharray="1,5" d="M300.95,-1234.74C286.02,-1213.54 260.46,-1177.23 243.15,-1152.65"/>
<polygon fill="gray" stroke="gray" points="245.81,-1150.34 237.19,-1144.17 240.08,-1154.37 245.81,-1150.34"/>
</g>
<!-- base_adapter&#45;&gt;file_adapter -->
<g id="edge35" class="edge">
<title>base_adapter&#45;&gt;file_adapter</title>
<path fill="none" stroke="gray" stroke-dasharray="1,5" d="M313,-1234.74C313,-1214.01 313,-1178.81 313,-1154.28"/>
<polygon fill="gray" stroke="gray" points="316.5,-1154.17 313,-1144.17 309.5,-1154.17 316.5,-1154.17"/>
</g>
<!-- django -->
<g id="node10" class="node">
<title>django</title>
<polygon fill="#d4edda" stroke="black" points="346.5,-983.36 279.5,-983.36 279.5,-942.36 346.5,-942.36 346.5,-983.36"/>
<text text-anchor="middle" x="313" y="-971.36" font-family="Arial" font-size="10.00">Django API</text>
<text text-anchor="middle" x="313" y="-960.36" font-family="Arial" font-size="10.00">+ Channels</text>
<text text-anchor="middle" x="313" y="-949.36" font-family="Arial" font-size="10.00">:8000</text>
</g>
<!-- webcam_adapter&#45;&gt;django -->
<g id="edge4" class="edge">
<title>webcam_adapter&#45;&gt;django</title>
<path fill="none" stroke="#2e7d32" d="M398.73,-1107.63C382.28,-1080.05 349.87,-1025.69 329.95,-992.29"/>
<polygon fill="#2e7d32" stroke="#2e7d32" points="332.82,-990.26 324.69,-983.46 326.8,-993.84 332.82,-990.26"/>
</g>
<!-- rtmp_adapter&#45;&gt;django -->
<g id="edge5" class="edge">
<title>rtmp_adapter&#45;&gt;django</title>
<path fill="none" stroke="#2e7d32" d="M234.42,-1107.63C249.49,-1080.05 279.2,-1025.69 297.46,-992.29"/>
<polygon fill="#2e7d32" stroke="#2e7d32" points="300.56,-993.92 302.29,-983.46 294.42,-990.56 300.56,-993.92"/>
</g>
<!-- file_adapter&#45;&gt;django -->
<g id="edge24" class="edge">
<title>file_adapter&#45;&gt;django</title>
<path fill="none" stroke="#f57f17" stroke-dasharray="5,2" d="M313,-1107.63C313,-1080.4 313,-1027.08 313,-993.58"/>
<polygon fill="#f57f17" stroke="#f57f17" points="316.5,-993.46 313,-983.46 309.5,-993.46 316.5,-993.46"/>
</g>
<!-- postgres -->
<g id="node11" class="node">
<title>postgres</title>
<polygon fill="#d4edda" stroke="black" points="345,-782.86 275,-782.86 275,-746.86 345,-746.86 345,-782.86"/>
<text text-anchor="middle" x="310" y="-767.86" font-family="Arial" font-size="10.00">PostgreSQL</text>
<text text-anchor="middle" x="310" y="-756.86" font-family="Arial" font-size="10.00">Database</text>
</g>
<!-- django&#45;&gt;postgres -->
<g id="edge6" class="edge">
<title>django&#45;&gt;postgres</title>
<path fill="none" stroke="#2e7d32" d="M312.7,-942.35C312.16,-907.23 311.03,-833.28 310.42,-793.16"/>
<polygon fill="#2e7d32" stroke="#2e7d32" points="313.92,-792.97 310.26,-783.03 306.92,-793.08 313.92,-792.97"/>
</g>
<!-- redis -->
<g id="node12" class="node">
<title>redis</title>
<polygon fill="#d4edda" stroke="black" points="449,-782.86 363,-782.86 363,-746.86 449,-746.86 449,-782.86"/>
<text text-anchor="middle" x="406" y="-767.86" font-family="Arial" font-size="10.00">Redis</text>
<text text-anchor="middle" x="406" y="-756.86" font-family="Arial" font-size="10.00">Cache &amp; Broker</text>
</g>
<!-- django&#45;&gt;redis -->
<g id="edge7" class="edge">
<title>django&#45;&gt;redis</title>
<path fill="none" stroke="#2e7d32" d="M322.26,-942.35C339.07,-906.93 374.61,-832.02 393.53,-792.14"/>
<polygon fill="#2e7d32" stroke="#2e7d32" points="396.73,-793.56 397.85,-783.03 390.4,-790.56 396.73,-793.56"/>
</g>
<!-- local_storage -->
<g id="node29" class="node">
<title>local_storage</title>
<polygon fill="#d4edda" stroke="black" points="157,-782.86 79,-782.86 79,-746.86 157,-746.86 157,-782.86"/>
<text text-anchor="middle" x="118" y="-767.86" font-family="Arial" font-size="10.00">Local Files</text>
<text text-anchor="middle" x="118" y="-756.86" font-family="Arial" font-size="10.00">(nginx&#45;served)</text>
</g>
<!-- django&#45;&gt;local_storage -->
<g id="edge8" class="edge">
<title>django&#45;&gt;local_storage</title>
<path fill="none" stroke="#2e7d32" d="M293.48,-942.32C265.3,-914.1 211.6,-860.28 166,-814.36 158.24,-806.54 149.78,-798.01 142.16,-790.3"/>
<polygon fill="#2e7d32" stroke="#2e7d32" points="144.39,-787.58 134.87,-782.93 139.41,-792.51 144.39,-787.58"/>
</g>
<!-- gcs_storage -->
<g id="node30" class="node">
<title>gcs_storage</title>
<polygon fill="#d4edda" stroke="black" points="251,-782.86 175,-782.86 175,-746.86 251,-746.86 251,-782.86"/>
<text text-anchor="middle" x="213" y="-767.86" font-family="Arial" font-size="10.00">Google Cloud</text>
<text text-anchor="middle" x="213" y="-756.86" font-family="Arial" font-size="10.00">Storage</text>
</g>
<!-- django&#45;&gt;gcs_storage -->
<g id="edge9" class="edge">
<title>django&#45;&gt;gcs_storage</title>
<path fill="none" stroke="#2e7d32" d="M303.05,-942.35C284.97,-906.93 246.75,-832.02 226.41,-792.14"/>
<polygon fill="#2e7d32" stroke="#2e7d32" points="229.42,-790.35 221.76,-783.03 223.19,-793.53 229.42,-790.35"/>
</g>
<!-- angular -->
<g id="node31" class="node">
<title>angular</title>
<polygon fill="#d4edda" stroke="black" points="979,-785.36 893,-785.36 893,-744.36 979,-744.36 979,-785.36"/>
<text text-anchor="middle" x="936" y="-773.36" font-family="Arial" font-size="10.00">Angular 17 SPA</text>
<text text-anchor="middle" x="936" y="-762.36" font-family="Arial" font-size="10.00">+ WebSocket</text>
<text text-anchor="middle" x="936" y="-751.36" font-family="Arial" font-size="10.00">:4200</text>
</g>
<!-- django&#45;&gt;angular -->
<g id="edge20" class="edge">
<title>django&#45;&gt;angular</title>
<path fill="none" stroke="#2e7d32" d="M346.74,-946.75C350.52,-945.21 354.32,-943.71 358,-942.36 548.11,-872.4 780.22,-807.57 882.85,-779.93"/>
<polygon fill="#2e7d32" stroke="#2e7d32" points="883.92,-783.27 892.67,-777.29 882.1,-776.51 883.92,-783.27"/>
<text text-anchor="middle" x="582.5" y="-882.46" font-family="Arial" font-size="8.00">WebSocket</text>
<text text-anchor="middle" x="582.5" y="-873.46" font-family="Arial" font-size="8.00">API</text>
</g>
<!-- logo_worker -->
<g id="node21" class="node">
<title>logo_worker</title>
<polygon fill="#d4edda" stroke="black" points="365.5,-588.36 282.5,-588.36 282.5,-547.36 365.5,-547.36 365.5,-588.36"/>
<text text-anchor="middle" x="324" y="-576.36" font-family="Arial" font-size="10.00">Logo Detection</text>
<text text-anchor="middle" x="324" y="-565.36" font-family="Arial" font-size="10.00">Worker</text>
<text text-anchor="middle" x="324" y="-554.36" font-family="Arial" font-size="10.00">(logo_queue)</text>
</g>
<!-- redis&#45;&gt;logo_worker -->
<g id="edge14" class="edge">
<title>redis&#45;&gt;logo_worker</title>
<path fill="none" stroke="#2e7d32" d="M398.72,-746.56C384.64,-713.06 353.51,-639.04 336.21,-597.89"/>
<polygon fill="#2e7d32" stroke="#2e7d32" points="339.33,-596.28 332.23,-588.42 332.88,-599 339.33,-596.28"/>
</g>
<!-- visual_worker -->
<g id="node22" class="node">
<title>visual_worker</title>
<polygon fill="#fff3cd" stroke="black" points="264.5,-588.36 173.5,-588.36 173.5,-547.36 264.5,-547.36 264.5,-588.36"/>
<text text-anchor="middle" x="219" y="-576.36" font-family="Arial" font-size="10.00">Visual Properties</text>
<text text-anchor="middle" x="219" y="-565.36" font-family="Arial" font-size="10.00">Worker</text>
<text text-anchor="middle" x="219" y="-554.36" font-family="Arial" font-size="10.00">(visual_queue)</text>
</g>
<!-- redis&#45;&gt;visual_worker -->
<g id="edge25" class="edge">
<title>redis&#45;&gt;visual_worker</title>
<path fill="none" stroke="#f57f17" stroke-dasharray="5,2" d="M389.4,-746.56C356.74,-712.49 283.89,-636.53 244.86,-595.83"/>
<polygon fill="#f57f17" stroke="#f57f17" points="247.21,-593.22 237.76,-588.42 242.15,-598.06 247.21,-593.22"/>
</g>
<!-- audio_worker -->
<g id="node23" class="node">
<title>audio_worker</title>
<polygon fill="#fff3cd" stroke="black" points="579.5,-588.36 492.5,-588.36 492.5,-547.36 579.5,-547.36 579.5,-588.36"/>
<text text-anchor="middle" x="536" y="-576.36" font-family="Arial" font-size="10.00">Audio Transcript</text>
<text text-anchor="middle" x="536" y="-565.36" font-family="Arial" font-size="10.00">Worker</text>
<text text-anchor="middle" x="536" y="-554.36" font-family="Arial" font-size="10.00">(audio_queue)</text>
</g>
<!-- redis&#45;&gt;audio_worker -->
<g id="edge26" class="edge">
<title>redis&#45;&gt;audio_worker</title>
<path fill="none" stroke="#f57f17" stroke-dasharray="5,2" d="M417.54,-746.56C440.06,-712.78 490.05,-637.79 517.34,-596.85"/>
<polygon fill="#f57f17" stroke="#f57f17" points="520.32,-598.68 522.96,-588.42 514.5,-594.8 520.32,-598.68"/>
</g>
<!-- text_worker -->
<g id="node24" class="node">
<title>text_worker</title>
<polygon fill="#fff3cd" stroke="black" points="474,-588.36 384,-588.36 384,-547.36 474,-547.36 474,-588.36"/>
<text text-anchor="middle" x="429" y="-576.36" font-family="Arial" font-size="10.00">Text Recognition</text>
<text text-anchor="middle" x="429" y="-565.36" font-family="Arial" font-size="10.00">Worker</text>
<text text-anchor="middle" x="429" y="-554.36" font-family="Arial" font-size="10.00">(text_queue)</text>
</g>
<!-- redis&#45;&gt;text_worker -->
<g id="edge27" class="edge">
<title>redis&#45;&gt;text_worker</title>
<path fill="none" stroke="#f57f17" stroke-dasharray="5,2" d="M408.04,-746.56C411.98,-713.2 420.65,-639.67 425.51,-598.41"/>
<polygon fill="#f57f17" stroke="#f57f17" points="429,-598.76 426.69,-588.42 422.05,-597.94 429,-598.76"/>
</g>
<!-- nginx -->
<g id="node13" class="node">
<title>nginx</title>
<polygon fill="#d4edda" stroke="black" points="449,-983.36 367,-983.36 367,-942.36 449,-942.36 449,-983.36"/>
<text text-anchor="middle" x="408" y="-971.36" font-family="Arial" font-size="10.00">NGINX</text>
<text text-anchor="middle" x="408" y="-960.36" font-family="Arial" font-size="10.00">Reverse Proxy</text>
<text text-anchor="middle" x="408" y="-949.36" font-family="Arial" font-size="10.00">:80</text>
</g>
<!-- nginx&#45;&gt;angular -->
<g id="edge22" class="edge">
<title>nginx&#45;&gt;angular</title>
<path fill="none" stroke="#2e7d32" d="M449.22,-958.34C515.67,-951.53 649.58,-933.15 754,-888.86 812.02,-864.25 870.97,-820.16 905.48,-792"/>
<polygon fill="#2e7d32" stroke="#2e7d32" points="907.81,-794.61 913.29,-785.55 903.35,-789.21 907.81,-794.61"/>
</g>
<!-- base_strategy -->
<g id="node14" class="node">
<title>base_strategy</title>
<polygon fill="#c8e6c9" stroke="black" points="793.5,-585.86 674.5,-585.86 674.5,-549.86 793.5,-549.86 793.5,-585.86"/>
<text text-anchor="middle" x="734" y="-570.86" font-family="Arial" font-size="10.00">BaseExecutionStrategy</text>
<text text-anchor="middle" x="734" y="-559.86" font-family="Arial" font-size="10.00">(Abstract)</text>
</g>
<!-- local_strategy -->
<g id="node15" class="node">
<title>local_strategy</title>
<polygon fill="#d4edda" stroke="black" points="772.5,-391.86 695.5,-391.86 695.5,-355.86 772.5,-355.86 772.5,-391.86"/>
<text text-anchor="middle" x="734" y="-371.36" font-family="Arial" font-size="10.00">LocalStrategy</text>
</g>
<!-- base_strategy&#45;&gt;local_strategy -->
<g id="edge36" class="edge">
<title>base_strategy&#45;&gt;local_strategy</title>
<path fill="none" stroke="gray" stroke-dasharray="1,5" d="M734,-549.82C734,-516.45 734,-442.22 734,-402.01"/>
<polygon fill="gray" stroke="gray" points="737.5,-401.86 734,-391.86 730.5,-401.86 737.5,-401.86"/>
</g>
<!-- lan_strategy -->
<g id="node16" class="node">
<title>lan_strategy</title>
<polygon fill="#fff3cd" stroke="black" points="677.5,-391.86 604.5,-391.86 604.5,-355.86 677.5,-355.86 677.5,-391.86"/>
<text text-anchor="middle" x="641" y="-371.36" font-family="Arial" font-size="10.00">LANStrategy</text>
</g>
<!-- base_strategy&#45;&gt;lan_strategy -->
<g id="edge37" class="edge">
<title>base_strategy&#45;&gt;lan_strategy</title>
<path fill="none" stroke="gray" stroke-dasharray="1,5" d="M725.75,-549.82C709.44,-516.16 673.01,-440.95 653.65,-400.99"/>
<polygon fill="gray" stroke="gray" points="656.74,-399.34 649.23,-391.86 650.44,-402.39 656.74,-399.34"/>
</g>
<!-- cloud_strategy -->
<g id="node17" class="node">
<title>cloud_strategy</title>
<polygon fill="#fff3cd" stroke="black" points="869.5,-391.86 790.5,-391.86 790.5,-355.86 869.5,-355.86 869.5,-391.86"/>
<text text-anchor="middle" x="830" y="-371.36" font-family="Arial" font-size="10.00">CloudStrategy</text>
</g>
<!-- base_strategy&#45;&gt;cloud_strategy -->
<g id="edge38" class="edge">
<title>base_strategy&#45;&gt;cloud_strategy</title>
<path fill="none" stroke="gray" stroke-dasharray="1,5" d="M742.52,-549.82C759.35,-516.16 796.96,-440.95 816.94,-400.99"/>
<polygon fill="gray" stroke="gray" points="820.16,-402.37 821.5,-391.86 813.9,-399.24 820.16,-402.37"/>
</g>
<!-- clip_adapter -->
<g id="node26" class="node">
<title>clip_adapter</title>
<polygon fill="#d4edda" stroke="black" points="462,-235.86 390,-235.86 390,-199.86 462,-199.86 462,-235.86"/>
<text text-anchor="middle" x="426" y="-220.86" font-family="Arial" font-size="10.00">CLIPAdapter</text>
<text text-anchor="middle" x="426" y="-209.86" font-family="Arial" font-size="10.00">(Local)</text>
</g>
<!-- local_strategy&#45;&gt;clip_adapter -->
<g id="edge16" class="edge">
<title>local_strategy&#45;&gt;clip_adapter</title>
<path fill="none" stroke="#2e7d32" d="M702.21,-355.79C697.14,-353.11 691.93,-350.39 687,-347.86 611.64,-309.2 523.11,-265.88 470.94,-240.57"/>
<polygon fill="#2e7d32" stroke="#2e7d32" points="472.15,-237.27 461.63,-236.05 469.1,-243.57 472.15,-237.27"/>
</g>
<!-- gcp_vision -->
<g id="node27" class="node">
<title>gcp_vision</title>
<polygon fill="#d4edda" stroke="black" points="579.5,-235.86 480.5,-235.86 480.5,-199.86 579.5,-199.86 579.5,-235.86"/>
<text text-anchor="middle" x="530" y="-220.86" font-family="Arial" font-size="10.00">GCPVisionAdapter</text>
<text text-anchor="middle" x="530" y="-209.86" font-family="Arial" font-size="10.00">(Cloud)</text>
</g>
<!-- local_strategy&#45;&gt;gcp_vision -->
<g id="edge17" class="edge">
<title>local_strategy&#45;&gt;gcp_vision</title>
<path fill="none" stroke="#2e7d32" d="M711.39,-355.79C674.7,-328.1 602.16,-273.34 560.8,-242.11"/>
<polygon fill="#2e7d32" stroke="#2e7d32" points="562.8,-239.24 552.71,-236.01 558.58,-244.83 562.8,-239.24"/>
</g>
<!-- yolo_adapter -->
<g id="node28" class="node">
<title>yolo_adapter</title>
<polygon fill="#fff3cd" stroke="black" points="371.5,-235.86 294.5,-235.86 294.5,-199.86 371.5,-199.86 371.5,-235.86"/>
<text text-anchor="middle" x="333" y="-220.86" font-family="Arial" font-size="10.00">YOLOAdapter</text>
<text text-anchor="middle" x="333" y="-209.86" font-family="Arial" font-size="10.00">(Planned)</text>
</g>
<!-- lan_strategy&#45;&gt;yolo_adapter -->
<g id="edge32" class="edge">
<title>lan_strategy&#45;&gt;yolo_adapter</title>
<path fill="none" stroke="#f57f17" stroke-dasharray="5,2" d="M607.55,-355.74C602.35,-353.09 597.03,-350.4 592,-347.86 516.41,-309.76 428.11,-265.92 376.59,-240.41"/>
<polygon fill="#f57f17" stroke="#f57f17" points="377.92,-237.17 367.41,-235.87 374.82,-243.44 377.92,-237.17"/>
</g>
<!-- speech_api -->
<g id="node34" class="node">
<title>speech_api</title>
<polygon fill="#fff3cd" stroke="black" points="833.5,-76.86 732.5,-76.86 732.5,-40.86 833.5,-40.86 833.5,-76.86"/>
<text text-anchor="middle" x="783" y="-61.86" font-family="Arial" font-size="10.00">Speech&#45;to&#45;Text API</text>
<text text-anchor="middle" x="783" y="-50.86" font-family="Arial" font-size="10.00">(Audio Transcript)</text>
</g>
<!-- cloud_strategy&#45;&gt;speech_api -->
<g id="edge31" class="edge">
<title>cloud_strategy&#45;&gt;speech_api</title>
<path fill="none" stroke="#f57f17" stroke-dasharray="5,2" d="M827.41,-355.59C819.64,-303.86 796.52,-149.89 787.08,-87.04"/>
<polygon fill="#f57f17" stroke="#f57f17" points="790.53,-86.45 785.59,-77.08 783.61,-87.49 790.53,-86.45"/>
</g>
<!-- file_watcher -->
<g id="node18" class="node">
<title>file_watcher</title>
<polygon fill="#d4edda" stroke="black" points="148.5,-585.86 45.5,-585.86 45.5,-549.86 148.5,-549.86 148.5,-585.86"/>
<text text-anchor="middle" x="97" y="-570.86" font-family="Arial" font-size="10.00">HLS File Watcher</text>
<text text-anchor="middle" x="97" y="-559.86" font-family="Arial" font-size="10.00">(segment detection)</text>
</g>
<!-- redis_events -->
<g id="node19" class="node">
<title>redis_events</title>
<polygon fill="#d4edda" stroke="black" points="149,-391.86 47,-391.86 47,-355.86 149,-355.86 149,-391.86"/>
<text text-anchor="middle" x="98" y="-376.86" font-family="Arial" font-size="10.00">Redis Event Queue</text>
<text text-anchor="middle" x="98" y="-365.86" font-family="Arial" font-size="10.00">(segment_events)</text>
</g>
<!-- file_watcher&#45;&gt;redis_events -->
<g id="edge11" class="edge">
<title>file_watcher&#45;&gt;redis_events</title>
<path fill="none" stroke="#2e7d32" d="M97.09,-549.82C97.26,-516.45 97.65,-442.22 97.86,-402.01"/>
<polygon fill="#2e7d32" stroke="#2e7d32" points="101.36,-401.88 97.91,-391.86 94.36,-401.84 101.36,-401.88"/>
<text text-anchor="middle" x="115" y="-487.46" font-family="Arial" font-size="8.00">publishes</text>
<text text-anchor="middle" x="115" y="-478.46" font-family="Arial" font-size="8.00">events</text>
</g>
<!-- event_processor -->
<g id="node20" class="node">
<title>event_processor</title>
<polygon fill="#d4edda" stroke="black" points="148,-235.86 54,-235.86 54,-199.86 148,-199.86 148,-235.86"/>
<text text-anchor="middle" x="101" y="-220.86" font-family="Arial" font-size="10.00">Event Processor</text>
<text text-anchor="middle" x="101" y="-209.86" font-family="Arial" font-size="10.00">(triggers analysis)</text>
</g>
<!-- redis_events&#45;&gt;event_processor -->
<g id="edge12" class="edge">
<title>redis_events&#45;&gt;event_processor</title>
<path fill="none" stroke="#2e7d32" d="M98.33,-355.79C98.85,-329.31 99.85,-278.09 100.46,-246.35"/>
<polygon fill="#2e7d32" stroke="#2e7d32" points="103.97,-246.07 100.67,-236.01 96.97,-245.94 103.97,-246.07"/>
<text text-anchor="middle" x="118.5" y="-298.46" font-family="Arial" font-size="8.00">consumes</text>
<text text-anchor="middle" x="118.5" y="-289.46" font-family="Arial" font-size="8.00">events</text>
</g>
<!-- event_processor&#45;&gt;logo_worker -->
<g id="edge13" class="edge">
<title>event_processor&#45;&gt;logo_worker</title>
<path fill="none" stroke="#2e7d32" d="M112.15,-236.26C148.12,-292.39 261.34,-469.07 305.81,-538.48"/>
<polygon fill="#2e7d32" stroke="#2e7d32" points="303.03,-540.62 311.37,-547.15 308.92,-536.85 303.03,-540.62"/>
<text text-anchor="middle" x="241" y="-376.46" font-family="Arial" font-size="8.00">triggers</text>
<text text-anchor="middle" x="241" y="-367.46" font-family="Arial" font-size="8.00">analysis</text>
</g>
<!-- logo_worker&#45;&gt;django -->
<g id="edge19" class="edge">
<title>logo_worker&#45;&gt;django</title>
<path fill="none" stroke="#2e7d32" d="M342.19,-588.46C375.99,-625.37 446.12,-704.6 458,-738.86 468.99,-770.57 470.71,-783.31 458,-814.36 436.6,-866.67 386.71,-910.41 351.45,-936.35"/>
<polygon fill="#2e7d32" stroke="#2e7d32" points="349.34,-933.55 343.27,-942.24 353.43,-939.23 349.34,-933.55"/>
<text text-anchor="middle" x="480" y="-767.46" font-family="Arial" font-size="8.00">analysis</text>
<text text-anchor="middle" x="480" y="-758.46" font-family="Arial" font-size="8.00">results</text>
</g>
<!-- logo_worker&#45;&gt;local_strategy -->
<g id="edge15" class="edge">
<title>logo_worker&#45;&gt;local_strategy</title>
<path fill="none" stroke="#2e7d32" d="M358.81,-547.31C364.17,-544.52 369.69,-541.79 375,-539.36 509.91,-477.69 562.02,-500.76 687,-420.86 696.23,-414.96 705.15,-407.01 712.69,-399.39"/>
<polygon fill="#2e7d32" stroke="#2e7d32" points="715.4,-401.62 719.73,-391.96 710.32,-396.81 715.4,-401.62"/>
</g>
<!-- visual_worker&#45;&gt;lan_strategy -->
<g id="edge28" class="edge">
<title>visual_worker&#45;&gt;lan_strategy</title>
<path fill="none" stroke="#f57f17" stroke-dasharray="5,2" d="M256.92,-547.24C262.6,-544.5 268.42,-541.79 274,-539.36 412.32,-479.22 463.83,-500.37 592,-420.86 601.52,-414.96 610.79,-407.01 618.66,-399.39"/>
<polygon fill="#f57f17" stroke="#f57f17" points="621.47,-401.52 626.02,-391.96 616.49,-396.6 621.47,-401.52"/>
</g>
<!-- audio_worker&#45;&gt;cloud_strategy -->
<g id="edge29" class="edge">
<title>audio_worker&#45;&gt;cloud_strategy</title>
<path fill="none" stroke="#f57f17" stroke-dasharray="5,2" d="M575.24,-547.17C625.3,-521.25 713.6,-472.85 782,-420.86 790.55,-414.37 799.22,-406.52 806.8,-399.16"/>
<polygon fill="#f57f17" stroke="#f57f17" points="809.34,-401.56 813.96,-392.03 804.41,-396.6 809.34,-401.56"/>
</g>
<!-- text_worker&#45;&gt;cloud_strategy -->
<g id="edge30" class="edge">
<title>text_worker&#45;&gt;cloud_strategy</title>
<path fill="none" stroke="#f57f17" stroke-dasharray="5,2" d="M466.97,-547.35C472.64,-544.59 478.45,-541.85 484,-539.36 614.08,-481.1 662.1,-497.93 782,-420.86 791.32,-414.87 800.4,-406.9 808.11,-399.29"/>
<polygon fill="#f57f17" stroke="#f57f17" points="810.86,-401.48 815.32,-391.87 805.84,-396.6 810.86,-401.48"/>
</g>
<!-- base_ai -->
<g id="node25" class="node">
<title>base_ai</title>
<polygon fill="#f8bbd9" stroke="black" points="472,-391.86 380,-391.86 380,-355.86 472,-355.86 472,-391.86"/>
<text text-anchor="middle" x="426" y="-376.86" font-family="Arial" font-size="10.00">DetectionAdapter</text>
<text text-anchor="middle" x="426" y="-365.86" font-family="Arial" font-size="10.00">(Abstract)</text>
</g>
<!-- base_ai&#45;&gt;clip_adapter -->
<g id="edge39" class="edge">
<title>base_ai&#45;&gt;clip_adapter</title>
<path fill="none" stroke="gray" stroke-dasharray="1,5" d="M426,-355.79C426,-329.31 426,-278.09 426,-246.35"/>
<polygon fill="gray" stroke="gray" points="429.5,-246.01 426,-236.01 422.5,-246.01 429.5,-246.01"/>
</g>
<!-- base_ai&#45;&gt;gcp_vision -->
<g id="edge40" class="edge">
<title>base_ai&#45;&gt;gcp_vision</title>
<path fill="none" stroke="gray" stroke-dasharray="1,5" d="M437.53,-355.79C455.8,-328.73 491.52,-275.84 512.82,-244.3"/>
<polygon fill="gray" stroke="gray" points="515.73,-246.25 518.42,-236.01 509.92,-242.34 515.73,-246.25"/>
</g>
<!-- base_ai&#45;&gt;yolo_adapter -->
<g id="edge41" class="edge">
<title>base_ai&#45;&gt;yolo_adapter</title>
<path fill="none" stroke="gray" stroke-dasharray="1,5" d="M415.69,-355.79C399.42,-328.85 367.68,-276.29 348.61,-244.7"/>
<polygon fill="gray" stroke="gray" points="351.52,-242.76 343.35,-236.01 345.53,-246.38 351.52,-242.76"/>
</g>
<!-- vision_api -->
<g id="node33" class="node">
<title>vision_api</title>
<polygon fill="#d4edda" stroke="black" points="714.5,-76.86 623.5,-76.86 623.5,-40.86 714.5,-40.86 714.5,-76.86"/>
<text text-anchor="middle" x="669" y="-61.86" font-family="Arial" font-size="10.00">Cloud Vision API</text>
<text text-anchor="middle" x="669" y="-50.86" font-family="Arial" font-size="10.00">(Logo Detection)</text>
</g>
<!-- gcp_vision&#45;&gt;vision_api -->
<g id="edge18" class="edge">
<title>gcp_vision&#45;&gt;vision_api</title>
<path fill="none" stroke="#2e7d32" d="M545.14,-199.76C569.79,-171.92 618.69,-116.68 647.12,-84.58"/>
<polygon fill="#2e7d32" stroke="#2e7d32" points="649.87,-86.75 653.88,-76.94 644.63,-82.11 649.87,-86.75"/>
</g>
<!-- local_storage&#45;&gt;file_watcher -->
<g id="edge10" class="edge">
<title>local_storage&#45;&gt;file_watcher</title>
<path fill="none" stroke="#2e7d32" d="M116.14,-746.56C112.48,-712.59 104.33,-636.95 99.94,-596.17"/>
<polygon fill="#2e7d32" stroke="#2e7d32" points="103.41,-595.7 98.86,-586.13 96.45,-596.44 103.41,-595.7"/>
<text text-anchor="middle" x="136.5" y="-685.46" font-family="Arial" font-size="8.00">monitors</text>
<text text-anchor="middle" x="136.5" y="-676.46" font-family="Arial" font-size="8.00">HLS segments</text>
</g>
<!-- hls_player -->
<g id="node32" class="node">
<title>hls_player</title>
<polygon fill="#d4edda" stroke="black" points="994.5,-585.86 893.5,-585.86 893.5,-549.86 994.5,-549.86 994.5,-585.86"/>
<text text-anchor="middle" x="944" y="-570.86" font-family="Arial" font-size="10.00">HLS.js Player</text>
<text text-anchor="middle" x="944" y="-559.86" font-family="Arial" font-size="10.00">+ Canvas Overlays</text>
</g>
<!-- angular&#45;&gt;hls_player -->
<g id="edge21" class="edge">
<title>angular&#45;&gt;hls_player</title>
<path fill="none" stroke="#2e7d32" d="M936.81,-744.09C938.25,-708.97 941.26,-635.66 942.89,-595.9"/>
<polygon fill="#2e7d32" stroke="#2e7d32" points="946.39,-596 943.3,-585.86 939.4,-595.71 946.39,-596"/>
</g>
</g>
</svg>
